<?xml version="1.0" encoding="UTF-8"?>
<svg id="Layer_1" data-name="Layer 1" xmlns="http://www.w3.org/2000/svg" viewBox="0 0 785.3815 1017.2414">
  <defs>
    <style>
      .cls-1 {
        fill: #010101;
      }
    </style>
  </defs>
  <path class="cls-1" d="M328.7475,353.4281c-28.4193-2.0131-60.7828-34.3603-61.9221-60.5293-.7438-17.0865,7.2283-29.6746,21.3885-38.0722,15.5199-9.2039,31.942-8.3968,46.9224,.8205,7.8424,4.8254,12.8086,4.9276,20.6607-.102,19.904-12.7494,43.1026-9.3277,58.2449,6.9991,15.6153,16.8369,18.8031,48.2555,1.943,66.329-49.0037,52.5309-103.4384,98.0709-176.7728,112.4603-45.6415,8.9556-84.1646-19.0633-90.1139-65.1141-3.3988-26.3086,6.6802-48.5458,26.7857-65.7166,5.4287-4.6364,7.8003-9.3773,7.4068-16.3171-2.53-44.6263,37.1579-83.0213,74.8325-90.0371,11.6278-2.1653,19.3477-6.0929,26.2779-16.9782,23.1934-36.4306,58.4003-51.658,100.3045-44.58,40.5455,6.8485,67.6274,32.042,78.6799,72.4879,2.1181,7.7513,5.5308,11.8053,13.6657,13.8407,42.0499,10.5211,68.4715,43.5486,68.5765,84.6661,.1006,39.4038-27.432,73.467-68.2624,83.9006-5.667,1.4481-8.9529,4.2842-11.6194,9.2894-11.7034,21.9672-29.9005,33.2207-55.0944,34.1067-23.4592,.8251-47.1479,.758-69.1665,11.4367-14.9884,7.2691-25.9482,18.6031-35.8415,31.5274-27.1769,35.5036-63.4399,48.565-107.4796,45.1549-39.3078-3.0437-75.9846-13.1099-108.4556-35.6236C40.8511,459.5027,14.0846,411.291,4.057,353.7583c-15.1263-86.7856,13.1165-161.58,66.8659-228.3081C119.2956,65.397,183.0594,29.6754,257.2372,12.1089c91.0014-21.5506,180.0533-14.873,265.3231,24.3567,63.8989,29.3977,111.4872,75.5518,132.0685,144.5724,16.2089,54.3574,49.8223,94.5469,95.1624,126.4721,7.3385,5.1673,14.5718,10.5248,21.5047,16.2192,18.3903,15.1052,18.7758,36.1351,1.1392,52.0336-4.9981,4.5054-10.4239,8.5771-15.1116,13.3769-7.8263,8.0135-6.8708,16.1129,2.1482,22.6613,.3026,.2197,.6223,.4154,.9316,.6261,23.4649,15.975,23.5774,16.3681,4.6629,36.6145-5.3061,5.6798-3.1707,9.6942,1.6417,14.1461,13.023,12.0474,13.0006,12.8249,2.4511,26.3748-10.2519,13.1675-11.1903,29.5547-2.5215,44.034,21.4368,35.8057,15.078,52.9703-24.5108,65.9003-30.2432,9.8777-60.8182,17.3282-92.721,20.8793-101.4612,11.2938-181.3793,100.7355-182.5986,202.592-.9328,77.9254,31.5015,138.502,95.4448,182.5973,2.6364,1.8181,6.3159,2.5964,7.4926,6.2584-50.5471,21.6304-177.144-24.5493-232.0317-84.5779-87.2682-95.4419-105.6058-225.6421-45.5678-337.0391,50.6999-94.0707,147.8423-146.8632,233.9795-148.4163-116.3934,43.6588-184.0057,124.1991-193.2411,247.7975-5.0881,68.0957,16.0663,129.5185,59.6292,183.7452,3.3093-5.5756,.6369-9.8139,.3361-14.0243-7.565-105.8573,27.4729-194.1079,112.4125-258.8292,50.7417-38.6638,90.4198-84.0628,108.5555-145.6664,20.7965-70.6424,26.0812-142.7257,3.2923-213.4888-34.9593-108.5543-111.8473-171.5306-223.7284-188.7368-106.6531-16.4022-199.0261,18.0381-279.4852,87.9423-41.2199,35.8127-69.5159,79.4778-78.5204,133.6506-11.4153,68.6762,.5256,131.9167,53.5615,181.2696,37.8568,35.2281,84.1213,51.0409,136.0443,47.0027,24.2772-1.8881,43.8335-14.4802,59.3458-32.8834,28.568-33.8925,63.5644-53.9577,109.0838-52.4121,6.7384,.2288,13.4139-.3251,20.0315-1.9884,23.0713-5.799,35.2286-23.0616,32.2225-46.611-1.4992-11.7455-3.5807-23.4167-5.8516-38.037,14.1255,9.3936,24.8215,18.1787,29.8887,32.0504,2.8454,7.789,7.1095,8.1739,13.8333,5.111,23.2631-10.5971,36.499-33.1443,34.8237-60.0032-1.4609-23.4203-18.6363-44.3235-41.9029-51.8024-7.3546-2.364-12.0973-.8023-15.7567,5.9872-3.3986,6.3055-8.4052,11.4489-13.8175,16.1071-1.8813,1.6191-3.7564,4.4346-6.6348,3.101-3.1325-1.4515-1.3327-4.5848-1.3422-7.052-.0581-14.8951,3.5552-29.614,.9089-44.6885-5.9273-33.7646-32.8792-58.3857-68.8608-62.0708-28.7835-2.9479-60.6261,18.2014-71.1239,48.2867-3.128,8.9645-7.5597,12.0193-16.9925,11.8925-56.4753-.7591-93.1325,62.8278-62.6198,108.1537,.4158,.6176,.8336,1.2769,1.0506,1.9786,1.384,4.4752,8.2819,9.147,4.8941,12.4717-4.0403,3.9648-10.4482-.5576-15.3493-2.9476-3.9923-1.9468-8.3898-4.0328-11.1805-7.2825-6.9793-8.1275-11.8146-5.1958-16.5146,1.9976-10.9141,16.7045-11.4374,34.1772-1.1267,50.811,10.5455,17.0127,25.833,26.6103,47.1035,23.7882,36.7699-4.8784,67.7416-22.7041,97.5055-43.2313,21.9185-15.1165,41.877-32.6348,61.0303-51.0663,7.5061-7.2231,12.5972-15.6451,11.8903-26.7598-.5449-8.5676-4.0925-15.3247-11.5263-19.3029-7.5372-4.0336-14.575-.8561-21.0074,3.456-7.5209,5.0416-11.1377,12.8657-14.4657,20.8918-.955,2.303-1.5668,5.4263-4.7892,5.5856-3.3088,.1636-3.9196-3.0154-5.1289-5.2074-5.7304-10.3866-13.0105-18.9408-24.3485-23.8057-7.6563-3.2851-13.9909-1.5666-19.7119,3.3527-5.6106,4.8243-7.0044,11.2013-4.9866,18.3645,4.8037,17.0539,15.203,30.6739,26.5642,43.7445,2.8398,3.267,5.3612,6.8108,8.6289,10.9959Z"/>
</svg>