<?xml version="1.0" encoding="UTF-8"?>
<svg id="Layer_1" data-name="Layer 1" xmlns="http://www.w3.org/2000/svg" viewBox="0 0 941.3793 1080">
  <defs>
    <style>
      .cls-1 {
        fill: #fcc3a1;
      }

      .cls-2 {
        fill: #010101;
      }
    </style>
  </defs>
  <rect class="cls-1" x="0" width="941.3793" height="1080" rx="470.6892" ry="470.6892"/>
  <path class="cls-2" d="M420.623,418.4864c-22.2519-1.5762-47.5921-26.9036-48.4841-47.3935-.5824-13.3785,5.6597-23.2348,16.7469-29.81,12.1519-7.2065,25.0102-6.5746,36.7396,.6425,6.1405,3.7782,10.0289,3.8583,16.177-.0798,15.5845-9.9826,33.7487-7.3035,45.6049,5.4802,12.2266,13.183,14.7225,37.7834,1.5214,51.9347-38.3692,41.131-80.9908,76.7881-138.4106,88.0548-35.7366,7.0121-65.8997-14.9263-70.5579-50.9834-2.6612-20.5993,5.2305-38.0107,20.9728-51.4551,4.2506-3.6302,6.1075-7.3423,5.7994-12.7761-1.9809-34.9418,29.0941-65.0045,58.5927-70.4978,9.1044-1.6954,15.149-4.7707,20.5752-13.2937,18.1601-28.5247,45.7266-40.4474,78.537-34.9055,31.7466,5.3623,52.9513,25.0885,61.6052,56.757,1.6584,6.0691,4.3306,9.2434,10.7,10.8371,32.9245,8.2379,53.6122,34.0979,53.6944,66.2924,.0788,30.8526-21.4788,57.5236-53.4485,65.693-4.4372,1.1338-7.01,3.3545-9.0978,7.2735-9.1636,17.2-23.4117,26.0113-43.1381,26.7051-18.3682,.646-36.9161,.5935-54.1564,8.9548-11.7357,5.6916-20.3171,14.566-28.0634,24.6855-21.2791,27.7988-49.6725,38.0257-84.155,35.3556-30.7775-2.3832-59.4949-10.2649-84.9192-27.8928-38.2545-26.5235-59.2124-64.2726-67.0638-109.3199-11.8437-67.9519,10.27-126.5148,52.355-178.762,37.8751-47.0209,87.8013-74.9903,145.8814-88.7446,71.2528-16.8738,140.9792-11.6453,207.7442,19.0709,50.0319,23.018,87.2929,59.156,103.4077,113.1981,12.6913,42.5611,39.0102,74.0289,74.5108,99.0259,5.746,4.0459,11.4095,8.2408,16.8379,12.6994,14.3993,11.8272,14.7012,28.2933,.892,40.7415-3.9135,3.5277-8.1617,6.7157-11.8322,10.4739-6.1278,6.2745-5.3797,12.6162,1.682,17.7435,.2369,.172,.4873,.3253,.7294,.4902,18.3727,12.5082,18.4608,12.816,3.651,28.6686-4.1546,4.4472-2.4826,7.5904,1.2855,11.0762,10.1968,9.4329,10.1793,10.0417,1.9192,20.6511-8.0271,10.31-8.7619,23.1409-1.9743,34.478,16.7847,28.0353,11.8059,41.475-19.1916,51.599-23.68,7.7341-47.6198,13.5677-72.5992,16.3482-79.4426,8.8429-142.0174,78.8744-142.9721,158.6266-.7304,61.0145,24.6652,108.4451,74.7319,142.9711,2.0643,1.4236,4.9453,2.0329,5.8666,4.9002-39.5777,16.9363-138.7012-19.2218-181.6775-66.2233-68.3298-74.7297-82.6878-176.6746-35.6789-263.8968,39.6973-73.656,115.7584-114.9918,183.2026-116.2079-91.1343,34.1842-144.0738,97.2461-151.305,194.0219-3.9839,53.318,12.5797,101.4111,46.6888,143.8699,2.5911-4.3656,.4987-7.6841,.2632-10.9808-5.9233-82.8848,21.5109-151.9837,88.0174-202.6596,39.7301-30.2732,70.7974-65.8199,84.9974-114.0547,16.2833-55.312,20.4212-111.7521,2.5778-167.1586-27.3727-84.9965-87.5749-134.306-175.1762-147.7782-83.5078-12.8427-155.8346,14.1236-218.8329,68.8576-32.2746,28.0408-54.43,62.23-61.4804,104.6465-8.938,53.7725,.4116,103.2889,41.9379,141.9315,29.6414,27.5831,65.8658,39.9643,106.5208,36.8025,19.0087-1.4783,34.321-11.3378,46.4669-25.7473,22.3683-26.5374,49.77-42.2481,85.4111-41.038,5.2761,.1791,10.5029-.2546,15.6844-1.5569,18.0645-4.5405,27.5835-18.0569,25.2298-36.4957-1.1739-9.1966-2.8037-18.3349-4.5817-29.7824,11.06,7.355,19.4349,14.2337,23.4024,25.095,2.2279,6.0987,5.5667,6.4,10.8313,4.0018,18.2146-8.2974,28.5782-25.9515,27.2664-46.9816-1.1438-18.3378-14.5919-34.7047-32.8094-40.5606-5.7585-1.8509-9.472-.6282-12.3372,4.6879-2.6611,4.9371-6.5812,8.9643-10.8189,12.6116-1.473,1.2677-2.9412,3.4723-5.195,2.4281-2.4527-1.1365-1.0434-3.5899-1.051-5.5216-.0455-11.6626,2.7837-23.1873,.7116-34.9905-4.641-26.4372-25.7439-45.7152-53.9171-48.6006-22.537-2.3081-47.4694,14.2514-55.689,37.8078-2.4491,7.0191-5.9191,9.4109-13.3049,9.3117-44.2193-.5944-72.9214,49.1933-49.0304,84.6828,.3256,.4836,.6527,.9998,.8226,1.5492,1.0836,3.504,6.4846,7.162,3.832,9.7651-3.1635,3.1044-8.1808-.4366-12.0183-2.3079-3.1259-1.5243-6.5691-3.1576-8.7542-5.7021-5.4647-6.3637-9.2507-4.0682-12.9307,1.5641-8.5456,13.0794-8.9553,26.7603-.8822,39.7842,8.257,13.3207,20.2269,20.8355,36.8814,18.6258,28.7903-3.8197,53.0407-17.777,76.3454-33.8495,17.1619-11.836,32.7891-25.5526,47.7858-39.9842,5.8772-5.6556,9.8634-12.2499,9.3099-20.9526-.4267-6.7083-3.2044-11.999-9.025-15.1139-5.9015-3.1582-11.412-.6703-16.4485,2.706-5.8887,3.9475-8.7207,10.0737-11.3265,16.358-.7477,1.8032-1.2268,4.2487-3.7498,4.3735-2.5908,.1281-3.069-2.361-4.0159-4.0773-4.4868-8.1325-10.187-14.8304-19.0645-18.6395-5.9947-2.5722-10.9547-1.2266-15.4341,2.6251-4.393,3.7774-5.4843,8.7704-3.9045,14.3791,3.7612,13.3529,11.9037,24.0173,20.7994,34.2513,2.2235,2.5581,4.1978,5.3327,6.7563,8.6096Z"/>
</svg>